<?xml version="1.0" encoding="utf-8"?>
<!-- Generator: Adobe Illustrator 20.1.0, SVG Export Plug-In . SVG Version: 6.00 Build 0)  -->
<svg version="1.1" id="Laag_1" xmlns="http://www.w3.org/2000/svg" xmlns:xlink="http://www.w3.org/1999/xlink" x="0px" y="0px"
	 viewBox="0 0 30 30" style="enable-background:new 0 0 30 30;" xml:space="preserve">
<style type="text/css">
	.st0{fill:#FFFFFF;}
	.st1{fill:none;stroke:#FFFFFF;stroke-width:2;stroke-linecap:round;stroke-linejoin:round;stroke-miterlimit:10;}
</style>
<path class="st0" d="M12.1,19.2H4.6c0,0-0.6-1.4-0.6-4.1s0.6-4,0.6-4H12v8.1H12.1z"/>
<path class="st0" d="M14,24.6l-9.4-9.4L14,5.7c0,0,1,3.1,1,9.4S14,24.6,14,24.6z"/>
<g>
	<path class="st1" d="M22.2,25.1c1.8-2.9,2.8-6.2,2.8-9.8c0-3.8-1.1-7.3-3-10.2"/>
	<path class="st1" d="M18.3,8.8c1.1,2,1.7,4.2,1.7,6.6c0,2.2-0.5,4.3-1.5,6.2"/>
</g>
</svg>
